# xmcd
#
# Track frame offsets: 
#        183
#        12278
#        23578
#        34738
#        47090
#        59480
#        70153
#        80980
#        92103
#        104118
#        113898
#        127303
#        140500
#        149985
#        161680
#        175913
#        188548
#        201515
#        212018
#        228113
#        239970
#        251083
#        261855
#        271610
#        282458
#
# Disc length: 3902 seconds
#
# Revision: 5
# Processed by: cddbd v1.5.2PL0 Copyright (c) Steve Scherf et al.
# Submitted via: ExactAudioCopyFreeDBPlugin 1.0
#
DISCID=8c0f3c19
DTITLE=Various Artist - The Sue Records Story:  New York City - The S
DTITLE=ound of Soul [box set]
DYEAR=1994
DGENRE=Rhythm and Blues
TTITLE0=Inez and Charlie Foxx - Mockingbird
TTITLE1=Barbara George - She's Got Everything
TTITLE2=Derek Martin - Daddy Rollin' Stone
TTITLE3=The Soul Sisters - I Can't Stand It
TTITLE4=Jackie Shane - In My Tenement
TTITLE5=Baby Washington - Leave Me Alone
TTITLE6=Hank Jacobs - So Far Away
TTITLE7=Ocie Smith - Everybody But Me
TTITLE8=Inez Foxx - Ask Me
TTITLE9=Jimmy Helms - You're Mine You
TTITLE10=The Soul Sisters - Good Time Tonight
TTITLE11=Inez Foxx - I See You My Love
TTITLE12=Derek Martin - Don't Put Me Down Like This
TTITLE13=Justine Washington - I Can't Wait Until I See My Baby
TTITLE14=Inez Foxx - Hurt By Love
TTITLE15=Sylvia Robbins - I Can't Tell You
TTITLE16=Jimmy McGriff - The Last Minute, Part 1
TTITLE17=Lovelace Watkins - Dreams
TTITLE18=The Soul Sisters - Loop De Loop
TTITLE19=The Everglades - Limbo Lucy
TTITLE20=Inez and Charlie Foxx - La De Da I Love You
TTITLE21=Tyree Glenn, Jr. and The Fabulous Imperials - Yesterday
TTITLE22=Pancho Villa and The Bandits - Ain't That Bad (ft Charles Winfi
TTITLE22=eld, vocals)
TTITLE23=Sandra Phillips - You Succeeded
TTITLE24=Hank Jacobs - Monkey Hips and Rice
EXTD=
EXTT0=
EXTT1=
EXTT2=
EXTT3=
EXTT4=
EXTT5=
EXTT6=
EXTT7=
EXTT8=
EXTT9=
EXTT10=
EXTT11=
EXTT12=
EXTT13=
EXTT14=
EXTT15=
EXTT16=
EXTT17=
EXTT18=
EXTT19=
EXTT20=
EXTT21=
EXTT22=
EXTT23=
EXTT24=
PLAYORDER=
